<?xml version="1.0" encoding="UTF-8" standalone="no"?>
<!-- Created with Inkscape (http://www.inkscape.org/) -->
<svg
   xmlns:svg="http://www.w3.org/2000/svg"
   xmlns="http://www.w3.org/2000/svg"
   version="1.0"
   width="400"
   height="245"
   id="Cartesian coordinate system handedness">
  <defs
     id="defs4">
    <marker
       markerUnits="strokeWidth"
       refX="0"
       refY="5"
       markerWidth="4"
       markerHeight="3"
       orient="auto"
       viewBox="0 0 10 10"
       id="ArrowEnd">
      <path
         d="M 0,0 L 10,5 L 0,10 L 0,0 z "
         id="path7" />
    </marker>
    <marker
       markerUnits="strokeWidth"
       refX="10"
       refY="5"
       markerWidth="4"
       markerHeight="3"
       orient="auto"
       viewBox="0 0 10 10"
       id="ArrowStart">
      <path
         d="M 10,0 L 0,5 L 10,10 L 10,0 z "
         id="path10" />
    </marker>
  </defs>
  <g
     transform="matrix(1.570778,0,0,1.570778,-120.0807,-9.61934)"
     id="g12">
    <path
       d="M 0,722.108 L 0,722.108 L 0,722.108 z "
       style="fill:#000000;fill-rule:evenodd;stroke:none"
       id="path14" />
    <path
       d="M 108.26725,28.92615 L 104.88,19.44185 L 101.49275,28.92615 L 104.88,25.1326"
       style="fill:#000000;fill-rule:evenodd;stroke:none"
       id="path16" />
    <path
       d="M 104.88,109.33344 L 104.88,25.3"
       style="fill:none;stroke:#000000;stroke-width:0.795784;stroke-miterlimit:4;stroke-dasharray:none"
       id="path18" />
    <path
       d="M 178.647,83.4027 L 186.195,76.7353 L 176.131,77.112615 L 180.9114,78.8484"
       style="fill:#000000;fill-rule:evenodd;stroke:none"
       id="path20" />
    <path
       d="M 104.88,109.028 L 180.867,78.633"
       style="fill:none;stroke:#000000;stroke-width:0.795784;stroke-miterlimit:4;stroke-dasharray:none"
       id="path22" />
    <path
       d="M 176.20215,148.27635 L 186.19985,149.48845 L 179.23155,142.21755 L 181.11005,146.94355"
       style="fill:#000000;fill-rule:evenodd;stroke:none"
       id="path24" />
    <path
       d="M 104.60319,108.88482 L 181.095,147.135"
       style="fill:none;stroke:#000000;stroke-width:0.795784;stroke-miterlimit:4;stroke-dasharray:none"
       id="path26" />
    <path
       d="M 119.202,21.525 C 120.26,20.485 121.1,19.1219 121.1,18.961 C 121.1,18.782 120.968,18.811 120.87,18.811 C 120.655,18.811 120.637,18.827 120.529,19.015 C 119.937,20.037 119.704,20.108 119.417,20.108 C 119.094,20.108 118.915,19.934 118.574,19.481 C 118.36,19.194 118.055,18.811 117.48,18.811 C 116.154,18.811 115.371,20.473 115.371,20.826 C 115.371,20.987 115.501,21.0229 115.651,21.0229 C 115.866,21.0229 115.884,20.987 115.974,20.772 C 116.117,20.377 116.638,19.91 117.301,19.91 C 117.66,19.91 117.982,20.062 118.377,20.251 C 118.969,20.519 119.166,20.506 119.435,20.506 C 119.166,20.816 119.005,21.017 118.718,21.308 L 115.777,24.231 C 114.773,25.217 113.9,26.5439 113.9,26.724 C 113.9,26.903 114.069,26.903 114.181,26.903 C 114.378,26.903 114.396,26.8669 114.468,26.7419 C 114.719,26.365 115.203,25.606 115.885,25.606 C 116.28,25.606 116.423,25.789 116.746,26.204 C 117.033,26.563 117.302,26.903 117.858,26.903 C 119.596,26.903 120.544,24.572 120.544,24.141 C 120.544,23.962 120.345,23.962 120.297,23.962 C 120.082,23.962 120.064,24.016 119.992,24.249 C 119.669,25.146 118.808,25.803 118.037,25.803 C 117.678,25.803 117.391,25.657 117.033,25.468 C 116.495,25.235 116.28,25.205 115.921,25.205 C 115.831,25.205 115.688,25.163 115.598,25.181 C 115.724,25.038 116.1,24.589 116.602,24.087 L 119.202,21.525 z "
       style="fill:#000000;fill-rule:evenodd;stroke:none"
       id="path28" />
    <path
       d="M 178.6,63.9269 C 177.883,64.106 177.9,64.77 177.9,64.788 C 177.9,65.021 178.057,65.308 178.51,65.308 C 178.833,65.308 179.4,65.071 179.4,64.412 C 179.4,63.4969 178.353,63.311 177.829,63.311 C 176.843,63.311 176.251,64.1689 176.072,64.501 C 175.677,63.425 174.799,63.311 174.35,63.311 C 172.557,63.311 171.638,65.636 171.638,66.0439 C 171.638,66.223 171.784,66.223 171.857,66.223 C 172.09,66.223 172.09,66.205 172.18,65.918 C 172.664,64.376 173.597,63.711 174.314,63.711 C 174.834,63.711 175.175,64.111 175.175,64.806 C 175.175,65.236 174.96,66.115 174.798,66.779 C 174.601,67.514 174.583,67.586 174.386,68.4109 C 174.099,69.577 173.722,71.006 172.647,71.006 C 172.593,71.006 172.163,71.011 171.858,70.7599 C 172.396,70.6169 172.601,70.168 172.601,69.899 C 172.601,69.433 172.198,69.308 171.948,69.308 C 171.5,69.308 171.102,69.691 171.102,70.293 C 171.102,70.9919 171.832,71.405 172.63,71.405 C 173.491,71.405 174.083,70.724 174.387,70.186 C 174.746,71.2079 175.624,71.405 176.091,71.405 C 177.938,71.405 178.863,69.002 178.863,68.6429 C 178.863,68.464 178.714,68.464 178.583,68.464 C 178.368,68.464 178.35,68.482 178.26,68.769 C 177.776,70.311 176.879,71.0049 176.126,71.0049 C 175.768,71.0049 175.284,70.791 175.284,69.863 C 175.284,69.433 175.48,68.6609 175.625,68.0519 C 175.821,67.299 176.09,66.187 176.234,65.595 C 176.485,64.663 176.969,63.712 177.812,63.712 C 177.866,63.712 178.314,63.678 178.601,63.928 L 178.6,63.9269 z "
       style="fill:#000000;fill-rule:evenodd;stroke:none"
       id="path30" />
    <path
       d="M 189.202,138.142 C 188.521,141.101 187.194,141.89 186.297,141.89 C 185.436,141.89 185.186,141.209 185.186,141.119 C 185.186,141.101 185.204,141.083 185.329,141.065 C 185.885,140.975 186.1,140.491 186.1,140.204 C 186.1,139.827 185.813,139.608 185.49,139.608 C 185.275,139.608 184.6,139.718 184.6,140.742 C 184.6,141.674 185.325,142.305 186.297,142.305 C 188.162,142.305 189.794,140.447 190.242,138.662 L 191.999,131.596 C 192.017,131.488 192.053,131.4 192.053,131.345 C 192.053,131.149 191.91,130.909 191.551,130.909 C 191.013,130.909 190.887,131.405 190.852,131.542 L 189.543,136.814 C 189.417,137.334 188.7,138.405 187.642,138.405 C 186.835,138.405 186.7,137.619 186.7,137.03 C 186.7,135.936 187.277,134.322 187.714,133.103 C 187.857,132.726 187.9,132.475 187.9,132.136 C 187.9,131.239 187.328,130.712 186.584,130.712 C 184.916,130.712 184.289,133.338 184.289,133.445 C 184.289,133.624 184.468,133.624 184.558,133.624 C 184.791,133.624 184.809,133.588 184.881,133.337 C 185.024,132.781 185.509,131.112 186.549,131.112 C 186.746,131.112 186.901,131.162 186.901,131.598 C 186.901,132.028 186.739,132.513 186.513,133.212 C 186.047,134.466 185.601,135.793 185.601,136.726 C 185.601,138.286 186.63,138.806 187.589,138.806 C 188.414,138.806 188.969,138.376 189.202,138.143 L 189.202,138.142 z "
       style="fill:#000000;fill-rule:evenodd;stroke:none"
       id="path32" />
    <path
       d="M 95.084625,73.548375 L 84.978375,71.244625 L 89.87825,76.228375 L 89.47975,73.43075"
       style="fill:#cc5151;fill-rule:evenodd;stroke:none"
       id="path36" />
    <path
       d="M 89.5903,73.491 L 89.4866,73.449 C 93.8572,75.1949 99.2852,76.146 104.88,76.146 C 118.5,76.146 129.541,70.626 129.541,63.816 C 129.541,59.41 124.841,55.34 117.21,53.137"
       style="fill:none;stroke:#cc5151;stroke-width:1.01664305;stroke-linecap:round"
       id="path38" />
    <path
       d="M 231.57125,28.92615 L 228.184,19.44185 L 224.79675,28.92615 L 228.184,25.1326"
       style="fill:#000000;fill-rule:evenodd;stroke:none"
       id="path40" />
    <path
       d="M 228.184,109.21786 L 228.184,25.3"
       style="fill:none;stroke:#000000;stroke-width:0.795784;stroke-miterlimit:4;stroke-dasharray:none"
       id="path42" />
    <path
       d="M 301.951,83.4027 L 309.499,76.7353 L 299.435,77.112615 L 304.2154,78.8484"
       style="fill:#000000;fill-rule:evenodd;stroke:none"
       id="path44" />
    <path
       d="M 228.184,109.028 L 304.171,78.633"
       style="fill:none;stroke:#000000;stroke-width:0.795784;stroke-miterlimit:4;stroke-dasharray:none"
       id="path46" />
    <path
       d="M 299.50615,148.27635 L 309.50385,149.48845 L 302.53555,142.21755 L 304.41405,146.94355"
       style="fill:#000000;fill-rule:evenodd;stroke:none"
       id="path48" />
    <path
       d="M 227.92295,108.81441 L 304.399,147.135"
       style="fill:none;stroke:#000000;stroke-width:0.795784;stroke-miterlimit:4;stroke-dasharray:none"
       id="path50" />
    <path
       d="M 242.502,21.525 C 243.56,20.485 244.4,19.1219 244.4,18.961 C 244.4,18.782 244.268,18.811 244.17,18.811 C 243.955,18.811 243.937,18.827 243.829,19.015 C 243.237,20.037 243.004,20.108 242.717,20.108 C 242.394,20.108 242.215,19.934 241.875,19.481 C 241.66,19.194 241.355,18.811 240.781,18.811 C 239.454,18.811 238.671,20.473 238.671,20.826 C 238.671,20.987 238.802,21.0229 238.951,21.0229 C 239.166,21.0229 239.184,20.987 239.274,20.772 C 239.417,20.377 239.938,19.91 240.601,19.91 C 240.96,19.91 241.282,20.062 241.677,20.251 C 242.269,20.519 242.466,20.506 242.735,20.506 C 242.466,20.816 242.305,21.017 242.018,21.308 L 239.077,24.231 C 238.073,25.217 237.2,26.5439 237.2,26.724 C 237.2,26.903 237.369,26.903 237.481,26.903 C 237.678,26.903 237.696,26.8669 237.768,26.7419 C 238.019,26.365 238.503,25.606 239.185,25.606 C 239.58,25.606 239.723,25.789 240.046,26.204 C 240.333,26.563 240.602,26.903 241.158,26.903 C 242.896,26.903 243.844,24.572 243.844,24.141 C 243.844,23.962 243.646,23.962 243.597,23.962 C 243.382,23.962 243.364,24.016 243.292,24.249 C 242.969,25.146 242.108,25.803 241.337,25.803 C 240.978,25.803 240.691,25.657 240.333,25.468 C 239.795,25.235 239.58,25.205 239.221,25.205 C 239.131,25.205 238.988,25.163 238.898,25.181 C 239.024,25.038 239.4,24.589 239.902,24.087 L 242.502,21.525 z "
       style="fill:#000000;fill-rule:evenodd;stroke:none"
       id="path52" />
    <path
       d="M 299.302,67.542 C 298.621,70.501 297.294,71.29 296.397,71.29 C 295.536,71.29 295.286,70.6089 295.286,70.519 C 295.286,70.501 295.304,70.483 295.429,70.465 C 295.985,70.375 296.2,69.891 296.2,69.6039 C 296.2,69.227 295.913,69.008 295.59,69.008 C 295.375,69.008 294.7,69.118 294.7,70.142 C 294.7,71.074 295.425,71.705 296.397,71.705 C 298.262,71.705 299.894,69.847 300.342,68.062 L 302.099,60.996 C 302.117,60.888 302.153,60.799 302.153,60.745 C 302.153,60.548 302.01,60.308 301.651,60.308 C 301.113,60.308 300.987,60.805 300.952,60.942 L 299.643,66.214 C 299.517,66.7339 298.8,67.805 297.742,67.805 C 296.935,67.805 296.8,67.019 296.8,66.43 C 296.8,65.336 297.377,63.722 297.814,62.503 C 297.957,62.126 298,61.875 298,61.535 C 298,60.639 297.428,60.112 296.684,60.112 C 295.016,60.112 294.389,62.738 294.389,62.845 C 294.389,63.024 294.568,63.024 294.658,63.024 C 294.891,63.024 294.909,62.988 294.981,62.737 C 295.124,62.181 295.609,60.512 296.649,60.512 C 296.846,60.512 297.001,60.562 297.001,60.998 C 297.001,61.428 296.839,61.912 296.613,62.611 C 296.147,63.866 295.701,65.193 295.701,66.126 C 295.701,67.686 296.73,68.206 297.689,68.206 C 298.514,68.206 299.07,67.776 299.302,67.543 L 299.302,67.542 z "
       style="fill:#000000;fill-rule:evenodd;stroke:none"
       id="path54" />
    <path
       d="M 314.7,134.827 C 313.983,135.006 314,135.67 314,135.688 C 314,135.921 314.157,136.208 314.61,136.208 C 314.933,136.208 315.5,135.971 315.5,135.312 C 315.5,134.397 314.453,134.211 313.929,134.211 C 312.943,134.211 312.351,135.069 312.172,135.401 C 311.777,134.325 310.899,134.211 310.45,134.211 C 308.657,134.211 307.738,136.536 307.738,136.944 C 307.738,137.123 307.884,137.123 307.957,137.123 C 308.19,137.123 308.19,137.105 308.28,136.818 C 308.764,135.276 309.697,134.611 310.414,134.611 C 310.934,134.611 311.275,135.011 311.275,135.706 C 311.275,136.136 311.06,137.015 310.898,137.679 C 310.701,138.414 310.683,138.486 310.486,139.311 C 310.199,140.476 309.822,141.906 308.747,141.906 C 308.693,141.906 308.263,141.91 307.958,141.66 C 308.496,141.517 308.701,141.068 308.701,140.799 C 308.701,140.333 308.299,140.208 308.049,140.208 C 307.601,140.208 307.202,140.591 307.202,141.193 C 307.202,141.892 307.932,142.305 308.73,142.305 C 309.591,142.305 310.183,141.624 310.487,141.086 C 310.846,142.108 311.724,142.305 312.191,142.305 C 314.038,142.305 314.963,139.902 314.963,139.543 C 314.963,139.364 314.814,139.364 314.683,139.364 C 314.469,139.364 314.45,139.382 314.36,139.669 C 313.876,141.211 312.979,141.905 312.227,141.905 C 311.868,141.905 311.384,141.691 311.384,140.763 C 311.384,140.333 311.581,139.561 311.725,138.952 C 311.921,138.199 312.19,137.087 312.334,136.495 C 312.585,135.563 313.069,134.611 313.912,134.611 C 313.966,134.611 314.414,134.577 314.701,134.828 L 314.7,134.827 z "
       style="fill:#000000;fill-rule:evenodd;stroke:none"
       id="path56" />
    <path
       d="M 250.11575,54.227875 L 239.44825,52.680375 L 245.742,57.256625 L 244.537,54.517875"
       style="fill:#cc5151;fill-rule:evenodd;stroke:none"
       id="path60" />
    <path
       d="M 209.291,71.743 C 213.977,74.535 220.892,76.147 228.182,76.147 C 241.802,76.147 252.843,70.627 252.843,63.816 C 252.843,60.275 249.798,56.905 244.483,54.564"
       style="fill:none;stroke:#cc5151;stroke-width:1.01664305;stroke-linecap:round"
       id="path62" />
  </g>
</svg>
